<svg width="22" height="22" viewBox="0 0 22 22" fill="none" xmlns="http://www.w3.org/2000/svg">
<path d="M0 11C0 13.9174 1.15892 16.7153 3.22182 18.7782C5.28472 20.8411 8.08262 22 11 22C13.9174 22 16.7153 20.8411 18.7782 18.7782C20.8411 16.7153 22 13.9174 22 11C22 8.08262 20.8411 5.28472 18.7782 3.22182C16.7153 1.15892 13.9174 0 11 0C8.08262 0 5.28472 1.15892 3.22182 3.22182C1.15892 5.28472 0 8.08262 0 11ZM10.3125 6.1875C10.3125 6.00516 10.3849 5.83029 10.5139 5.70136C10.6428 5.57243 10.8177 5.5 11 5.5C11.1823 5.5 11.3572 5.57243 11.4861 5.70136C11.6151 5.83029 11.6875 6.00516 11.6875 6.1875V14.1529L14.6382 11.2008C14.7673 11.0717 14.9424 10.9991 15.125 10.9991C15.3076 10.9991 15.4827 11.0717 15.6118 11.2008C15.7408 11.3298 15.8134 11.5049 15.8134 11.6875C15.8134 11.8701 15.7408 12.0452 15.6118 12.1742L11.4867 16.2993C11.4229 16.3633 11.347 16.4141 11.2635 16.4487C11.18 16.4834 11.0904 16.5012 11 16.5012C10.9096 16.5012 10.82 16.4834 10.7365 16.4487C10.653 16.4141 10.5771 16.3633 10.5133 16.2993L6.38825 12.1742C6.25916 12.0452 6.18663 11.8701 6.18663 11.6875C6.18663 11.5049 6.25916 11.3298 6.38825 11.2008C6.51734 11.0717 6.69243 10.9991 6.875 10.9991C7.05757 10.9991 7.23266 11.0717 7.36175 11.2008L10.3125 14.1529V6.1875Z" fill="#2F96CE"/>
</svg>
