<svg width="41" height="41" viewBox="0 0 41 41" fill="none" xmlns="http://www.w3.org/2000/svg">
<g clip-path="url(#clip0_209_204)">
<path d="M30.0889 26.5064C32.5702 23.1205 33.6815 18.9226 33.2006 14.7526C32.7196 10.5825 30.6819 6.74779 27.4951 4.01563C24.3082 1.28347 20.2073 -0.144655 16.0127 0.0169699C11.8181 0.178595 7.8392 1.91805 4.87204 4.88734C1.90488 7.85662 0.168272 11.8368 0.00964844 16.0315C-0.148975 20.2262 1.28208 24.3261 4.01652 27.511C6.75096 30.6959 10.5871 32.7309 14.7575 33.2088C18.9279 33.6867 23.125 32.5724 26.5091 30.0887H26.5065C26.5834 30.1912 26.6654 30.2886 26.7577 30.3834L36.6233 40.249C37.1038 40.7299 37.7556 41.0001 38.4354 41.0004C39.1151 41.0006 39.7671 40.7308 40.2479 40.2503C40.7288 39.7698 40.999 39.118 40.9993 38.4383C40.9995 37.7585 40.7297 37.1065 40.2492 36.6257L30.3836 26.76C30.292 26.6673 30.1935 26.5816 30.0889 26.5038V26.5064ZM30.75 16.6561C30.75 18.5069 30.3855 20.3396 29.6772 22.0496C28.9689 23.7595 27.9308 25.3132 26.6221 26.6219C25.3134 27.9306 23.7597 28.9688 22.0497 29.677C20.3398 30.3853 18.5071 30.7499 16.6563 30.7499C14.8055 30.7499 12.9728 30.3853 11.2628 29.677C9.55291 28.9688 7.99923 27.9306 6.69051 26.6219C5.38178 25.3132 4.34364 23.7595 3.63537 22.0496C2.92709 20.3396 2.56254 18.5069 2.56254 16.6561C2.56254 12.9182 4.04742 9.33342 6.69051 6.69033C9.3336 4.04723 12.9184 2.56236 16.6563 2.56236C20.3942 2.56236 23.979 4.04723 26.6221 6.69033C29.2652 9.33342 30.75 12.9182 30.75 16.6561Z" fill="#198BCA"/>
</g>
<defs>
<clipPath id="clip0_209_204">
<rect width="41" height="41" fill="white"/>
</clipPath>
</defs>
</svg>
